<?xml version="1.0" encoding="utf-8" ?>
<svg xmlns="http://www.w3.org/2000/svg" xmlns:xlink="http://www.w3.org/1999/xlink" width="437" height="437" fill="#36495A">
	<path transform="matrix(0.853516 0 0 0.853516 -3.05176e-05 3.05176e-05)" d="M293.318 381.375L293.483 381.342C295.074 381.222 298.728 384.185 300.167 385.126L334.052 409.287C338.899 412.768 344.405 415.972 348.888 419.875C350.573 421.341 349.49 425.15 349.484 427.226L349.459 472.587L344.878 470.234L289.915 435.555C288.429 434.627 286.243 433.64 285.077 432.372L293.318 381.375Z"/>
	<path transform="matrix(0.853516 0 0 0.853516 -3.05176e-05 3.05176e-05)" d="M218.577 380.125C218.789 380.12 218.985 380.21 219.185 380.273L226.682 432.414C225.468 433.815 222.688 435.117 221.046 436.125L167.991 470.277L162.853 473.369L162.752 425.547C162.755 418.252 164.955 419.135 171.331 414.421L208.182 387.675C211.658 385.162 215.299 382.9 218.577 380.125Z"/>
	<path transform="matrix(0.853516 0 0 0.853516 -3.05176e-05 3.05176e-05)" d="M253.887 36.0892L257.25 36.0391C288.843 37.109 294.312 92.1608 294.247 115.245L293.68 140.343L466.666 265.335C473.572 270.479 480.511 276.42 488.281 280.209C487.722 284.957 487.974 289.884 487.978 294.66L487.973 318.843C487.976 323.054 488.193 327.316 487.944 331.517C483.362 330.869 478.92 328.929 474.518 327.531L333.795 278.841L293.917 265.785L276.25 399.625C275.205 404.376 274.217 409.528 273.694 414.367L266.25 464.125C265.318 473.885 267.379 472.256 257.125 472.248L246.618 472.243C245.997 470.261 245.922 468.076 245.698 466.017L232.881 373.875L220.947 282.196C220.232 276.575 219.833 270.82 218.784 265.26C208.834 267.468 199.137 271.968 189.5 275.311L67.3449 316.739L29.8107 330.329C28.0188 330.899 25.6515 331.136 24.0267 331.941L23.7934 289.03C23.8131 278.396 23.5466 281.375 31.9916 275.137L218.829 138.655C219.682 124.354 217.599 109.657 218.709 95.1451C220.32 74.092 228.858 37.3771 253.887 36.0892Z"/>
</svg>
